<?xml version="1.0" encoding="UTF-8" standalone="no"?>
<!DOCTYPE svg PUBLIC "-//W3C//DTD SVG 1.1//EN" "http://www.w3.org/Graphics/SVG/1.1/DTD/svg11.dtd">
<!-- Created with Vectornator (http://vectornator.io/) -->
<svg height="100%" stroke-miterlimit="10" style="fill-rule:nonzero;clip-rule:evenodd;stroke-linecap:round;stroke-linejoin:round;" version="1.1" viewBox="0 0 800 800" width="100%" xml:space="preserve" xmlns="http://www.w3.org/2000/svg" xmlns:vectornator="http://vectornator.io" xmlns:xlink="http://www.w3.org/1999/xlink">
<defs/>
<clipPath id="ArtboardFrame">
<rect height="800" width="800" x="0" y="0"/>
</clipPath>
<g clip-path="url(#ArtboardFrame)" id="图层-1" vectornator:layerName="图层 1">
<g opacity="1">
<g opacity="1">
<g opacity="1">
<path d="M465.056 587.783L574.781 587.783C596.543 587.783 615.428 582.144 631.434 570.867C647.44 559.59 659.865 543.812 668.711 523.535C677.556 503.258 681.979 479.565 681.979 452.457L681.979 451.806C681.979 431.42 678.539 413.041 671.659 396.667C664.779 380.294 655.618 367.227 644.175 357.468C632.732 347.709 620.201 342.613 606.582 342.179L606.582 339.577C618.376 337.191 629.012 331.39 638.489 322.173C647.966 312.956 655.443 301.082 660.918 286.552C666.394 272.022 669.132 255.648 669.132 237.432L669.132 236.781C669.132 212.058 665.201 190.859 657.338 173.184C649.475 155.509 638.138 141.955 623.325 132.521C608.513 123.088 590.647 118.371 569.726 118.371L465.056 118.371L465.056 212.709L545.507 212.709C556.88 212.709 565.865 216.829 572.464 225.07C579.063 233.311 582.363 244.48 582.363 258.576L582.363 259.227C582.363 274.408 578.923 286.39 572.043 295.173C565.163 303.956 555.054 308.348 541.716 308.348L465.056 308.348L465.056 391.3L545.928 391.3C555.756 391.3 564.005 393.252 570.674 397.155C577.343 401.059 582.398 406.806 585.838 414.396C589.278 421.987 590.998 431.095 590.998 441.722L590.998 442.372C590.998 458.854 587.242 471.487 579.73 480.27C572.219 489.053 561.583 493.445 547.824 493.445L465.056 493.445L465.056 587.783ZM420.408 587.783L509.704 587.783L509.704 118.371L420.408 118.371L420.408 587.783Z" fill="#343638" fill-rule="nonzero" opacity="1" stroke="none"/>
</g>
<path d="M325.433 587.783L379.418 587.783L412.271 587.783L382.726 118.371L276.525 118.371L118.021 587.783L207.254 587.783L235.402 494.421L322.838 494.421L325.433 587.783ZM314.055 233.528L315.851 233.528L320.243 397.155L264.747 397.155L314.055 233.528Z" fill="#ec0014" fill-rule="nonzero" opacity="1" stroke="none" vectornator:layerName="Curve"/>
<g opacity="1">
<path d="M147.063 614.611L147.195 614.611L151.546 645.426L131.755 645.426L147.063 614.611ZM154.523 666.967L157.039 666.967L149.026 610.613L146.346 610.613L118.021 666.967L121.025 666.967L130.442 648.139L151.902 648.139L154.523 666.967Z" fill="#626466" fill-rule="nonzero" opacity="1" stroke="none"/>
<path d="M194.402 626.352L191.859 626.352L187.312 651.368C186.873 653.833 186.032 656.089 184.79 658.136C183.547 660.183 182.003 661.815 180.159 663.034C178.314 664.252 176.277 664.861 174.048 664.861C171.142 664.861 168.866 663.956 167.221 662.146C165.575 660.335 164.753 657.91 164.753 654.872C164.753 654.253 164.793 653.564 164.873 652.805C164.953 652.046 165.06 651.32 165.192 650.629L169.564 626.352L167.003 626.352L162.507 651.155C162.385 651.913 162.291 652.677 162.227 653.446C162.162 654.215 162.13 654.947 162.13 655.642C162.13 657.893 162.587 659.925 163.5 661.737C164.413 663.55 165.708 664.982 167.385 666.035C169.062 667.088 171.033 667.614 173.298 667.614C175.207 667.614 176.967 667.237 178.58 666.483C180.192 665.729 181.623 664.698 182.873 663.39C184.123 662.082 185.151 660.624 185.957 659.016L186.066 659.016L184.615 666.967L187.084 666.967L194.402 626.352Z" fill="#626466" fill-rule="nonzero" opacity="1" stroke="none"/>
<path d="M205.422 667.054C205.582 667.054 205.955 667.044 206.54 667.022C207.125 667 207.498 666.975 207.659 666.945L208.137 664.291C208.069 664.298 207.89 664.305 207.599 664.313C207.309 664.32 207.013 664.326 206.711 664.329C206.409 664.333 206.209 664.335 206.11 664.335C204.446 664.335 203.142 663.921 202.198 663.094C201.254 662.268 200.782 661.03 200.782 659.381C200.782 658.917 200.815 658.428 200.882 657.913C200.948 657.398 201.031 656.842 201.132 656.245L206.055 628.995L213.486 628.995L213.955 626.352L206.524 626.352L208.44 615.618L205.864 615.618L203.942 626.352L198.929 626.352L198.46 628.995L203.464 628.995L198.454 656.751C198.343 657.395 198.257 658.005 198.193 658.581C198.13 659.158 198.099 659.706 198.099 660.227C198.099 662.469 198.765 664.167 200.099 665.322C201.432 666.477 203.206 667.054 205.422 667.054Z" fill="#626466" fill-rule="nonzero" opacity="1" stroke="none"/>
<path d="M227.515 664.872C224.062 664.872 221.299 663.538 219.226 660.869C217.153 658.201 216.117 654.678 216.117 650.302C216.117 646.161 216.78 642.439 218.105 639.137C219.43 635.835 221.233 633.228 223.514 631.315C225.795 629.403 228.358 628.447 231.204 628.447C234.657 628.447 237.42 629.781 239.493 632.45C241.566 635.118 242.602 638.641 242.602 643.017C242.602 647.158 241.939 650.88 240.614 654.182C239.289 657.484 237.491 660.091 235.222 662.003C232.952 663.916 230.383 664.872 227.515 664.872ZM231.204 625.705C228.687 625.705 226.355 626.323 224.205 627.56C222.056 628.797 220.183 630.529 218.586 632.757C216.988 634.985 215.747 637.601 214.861 640.605C213.975 643.609 213.532 646.869 213.532 650.385C213.532 653.828 214.106 656.842 215.255 659.426C216.405 662.01 218.029 664.021 220.129 665.458C222.228 666.895 224.691 667.614 227.515 667.614C230.032 667.614 232.364 666.996 234.514 665.759C236.663 664.522 238.536 662.79 240.133 660.562C241.731 658.334 242.973 655.718 243.859 652.714C244.744 649.71 245.187 646.45 245.187 642.934C245.187 639.472 244.613 636.452 243.464 633.873C242.315 631.295 240.694 629.289 238.602 627.855C236.51 626.422 234.044 625.705 231.204 625.705Z" fill="#626466" fill-rule="nonzero" opacity="1" stroke="none"/>
<path d="M247.638 666.967L250.214 666.967L254.817 641.612C255.307 638.943 256.095 636.626 257.181 634.662C258.267 632.698 259.569 631.173 261.086 630.087C262.604 629.001 264.239 628.458 265.993 628.458C268.421 628.458 270.363 629.324 271.817 631.056C273.27 632.789 273.997 635.008 273.997 637.714C273.997 638.344 273.955 639.092 273.87 639.958C273.784 640.825 273.676 641.622 273.543 642.351L269.115 666.967L271.692 666.967L276.246 641.803C276.749 639.034 277.542 636.653 278.625 634.661C279.708 632.669 281.012 631.137 282.537 630.065C284.062 628.993 285.718 628.458 287.503 628.458C289.91 628.458 291.84 629.324 293.294 631.056C294.748 632.789 295.475 635.008 295.475 637.714C295.475 638.344 295.434 639.092 295.352 639.958C295.27 640.825 295.162 641.622 295.03 642.351L290.602 666.967L293.178 666.967L297.733 641.77C297.856 641.106 297.951 640.342 298.017 639.481C298.083 638.619 298.116 637.786 298.116 636.982C298.116 634.784 297.691 632.837 296.841 631.143C295.991 629.448 294.826 628.118 293.345 627.153C291.865 626.188 290.17 625.705 288.262 625.705C286.424 625.705 284.729 626.138 283.176 627.004C281.624 627.87 280.281 629.034 279.146 630.497C278.012 631.959 277.14 633.599 276.529 635.415L276.406 635.415C276.189 632.637 275.203 630.324 273.447 628.476C271.69 626.629 269.47 625.705 266.785 625.705C264.434 625.705 262.349 626.446 260.529 627.929C258.709 629.411 257.261 631.481 256.184 634.139L256.051 634.139L257.448 626.352L254.956 626.352L247.638 666.967Z" fill="#626466" fill-rule="nonzero" opacity="1" stroke="none"/>
<path d="M312.644 664.927C310.088 664.927 308.01 664.17 306.409 662.657C304.809 661.144 304.009 659.165 304.009 656.721C304.009 653.783 305.023 651.453 307.05 649.731C309.078 648.008 311.955 647.031 315.683 646.8L327.089 646.046L325.823 652.825C325.396 655.146 324.539 657.222 323.252 659.052C321.965 660.881 320.404 662.318 318.57 663.361C316.736 664.405 314.761 664.927 312.644 664.927ZM312.146 667.586C313.877 667.586 315.53 667.26 317.106 666.607C318.682 665.955 320.115 665.03 321.405 663.833C322.696 662.637 323.751 661.241 324.571 659.645L324.694 659.674L323.371 666.967L325.873 666.967L330.703 640.235C330.801 639.616 330.876 639.014 330.928 638.428C330.981 637.842 331.007 637.28 331.007 636.742C331.007 634.525 330.539 632.589 329.603 630.933C328.667 629.277 327.348 627.991 325.646 627.077C323.944 626.162 321.947 625.705 319.656 625.705C317.192 625.705 314.971 626.208 312.995 627.213C311.018 628.219 309.392 629.626 308.117 631.435C306.841 633.244 305.995 635.372 305.578 637.819L308.243 637.819C308.597 635.899 309.278 634.24 310.285 632.842C311.292 631.444 312.579 630.362 314.144 629.596C315.71 628.83 317.488 628.447 319.479 628.447C322.296 628.447 324.493 629.212 326.068 630.744C327.643 632.275 328.431 634.384 328.431 637.071C328.431 637.522 328.405 637.999 328.354 638.503C328.303 639.006 328.229 639.54 328.131 640.103L327.525 643.485L315.677 644.278C311.141 644.577 307.632 645.818 305.148 648.003C302.665 650.188 301.423 653.178 301.423 656.974C301.423 659.056 301.885 660.896 302.809 662.495C303.733 664.093 305.001 665.341 306.613 666.239C308.226 667.137 310.07 667.586 312.146 667.586Z" fill="#626466" fill-rule="nonzero" opacity="1" stroke="none"/>
<path d="M343.94 667.054C344.101 667.054 344.474 667.044 345.059 667.022C345.644 667 346.017 666.975 346.177 666.945L346.655 664.291C346.587 664.298 346.408 664.305 346.118 664.313C345.827 664.32 345.531 664.326 345.23 664.329C344.928 664.333 344.728 664.335 344.629 664.335C342.965 664.335 341.661 663.921 340.717 663.094C339.773 662.268 339.301 661.03 339.301 659.381C339.301 658.917 339.334 658.428 339.4 657.913C339.466 657.398 339.55 656.842 339.651 656.245L344.573 628.995L352.005 628.995L352.474 626.352L345.042 626.352L346.959 615.618L344.383 615.618L342.461 626.352L337.448 626.352L336.979 628.995L341.982 628.995L336.972 656.751C336.862 657.395 336.775 658.005 336.712 658.581C336.649 659.158 336.617 659.706 336.617 660.227C336.617 662.469 337.284 664.167 338.617 665.322C339.95 666.477 341.725 667.054 343.94 667.054Z" fill="#626466" fill-rule="nonzero" opacity="1" stroke="none"/>
<path d="M355.12 644.519C355.6 641.379 356.509 638.602 357.847 636.188C359.186 633.774 360.847 631.879 362.831 630.501C364.814 629.124 367.002 628.436 369.394 628.436C371.607 628.436 373.49 628.989 375.045 630.097C376.599 631.204 377.784 632.744 378.598 634.715C379.412 636.686 379.819 638.961 379.819 641.542C379.819 642.23 379.803 642.783 379.771 643.2C379.739 643.616 379.68 644.056 379.595 644.519L355.12 644.519ZM365.411 667.636C367.836 667.636 370.046 667.134 372.042 666.132C374.037 665.129 375.747 663.704 377.173 661.859C378.598 660.013 379.648 657.85 380.323 655.37L377.713 655.37C376.765 658.37 375.235 660.708 373.123 662.382C371.011 664.057 368.479 664.894 365.525 664.894C363.269 664.894 361.314 664.317 359.658 663.163C358.002 662.008 356.725 660.367 355.826 658.239C354.928 656.111 354.478 653.581 354.478 650.651C354.478 650.21 354.502 649.695 354.55 649.104C354.597 648.514 354.664 647.848 354.749 647.108L381.901 647.108C382.059 646.354 382.18 645.49 382.264 644.518C382.348 643.545 382.39 642.614 382.39 641.725C382.39 638.428 381.867 635.583 380.82 633.191C379.774 630.798 378.285 628.953 376.353 627.654C374.421 626.354 372.131 625.705 369.484 625.705C366.958 625.705 364.62 626.339 362.47 627.608C360.321 628.876 358.456 630.651 356.878 632.934C355.299 635.216 354.072 637.883 353.196 640.934C352.321 643.984 351.883 647.298 351.883 650.874C351.883 654.217 352.421 657.147 353.496 659.663C354.572 662.18 356.124 664.138 358.153 665.537C360.181 666.936 362.601 667.636 365.411 667.636Z" fill="#626466" fill-rule="nonzero" opacity="1" stroke="none"/>
<path d="M410.525 667.054C410.686 667.054 411.059 667.044 411.644 667.022C412.229 667 412.602 666.975 412.763 666.945L413.241 664.291C413.173 664.298 412.993 664.305 412.703 664.313C412.413 664.32 412.117 664.326 411.815 664.329C411.513 664.333 411.313 664.335 411.214 664.335C409.55 664.335 408.246 663.921 407.302 663.094C406.358 662.268 405.886 661.03 405.886 659.381C405.886 658.917 405.919 658.428 405.986 657.913C406.052 657.398 406.135 656.842 406.236 656.245L411.159 628.995L418.59 628.995L419.059 626.352L411.627 626.352L413.544 615.618L410.968 615.618L409.046 626.352L404.033 626.352L403.564 628.995L408.568 628.995L403.557 656.751C403.447 657.395 403.36 658.005 403.297 658.581C403.234 659.158 403.203 659.706 403.203 660.227C403.203 662.469 403.869 664.167 405.202 665.322C406.536 666.477 408.31 667.054 410.525 667.054Z" fill="#626466" fill-rule="nonzero" opacity="1" stroke="none"/>
<path d="M418.046 666.967L420.622 666.967L425.193 641.951C425.638 639.472 426.475 637.21 427.703 635.167C428.932 633.124 430.459 631.495 432.285 630.28C434.11 629.065 436.128 628.458 438.339 628.458C441.267 628.458 443.591 629.408 445.309 631.308C447.028 633.208 447.887 635.721 447.887 638.847C447.887 639.345 447.853 639.921 447.783 640.576C447.714 641.23 447.621 641.935 447.505 642.69L443.072 666.967L445.624 666.967L450.208 642.109C450.331 641.351 450.415 640.631 450.46 639.949C450.506 639.268 450.529 638.656 450.529 638.115C450.529 635.755 450.056 633.641 449.112 631.774C448.167 629.907 446.84 628.433 445.132 627.353C443.424 626.273 441.428 625.733 439.145 625.733C436.299 625.733 433.821 626.544 431.711 628.165C429.601 629.787 427.926 631.844 426.684 634.338L426.552 634.338L430.859 610.613L428.283 610.613L418.046 666.967Z" fill="#626466" fill-rule="nonzero" opacity="1" stroke="none"/>
<path d="M458.301 644.519C458.78 641.379 459.689 638.602 461.028 636.188C462.366 633.774 464.027 631.879 466.011 630.501C467.995 629.124 470.182 628.436 472.574 628.436C474.787 628.436 476.671 628.989 478.225 630.097C479.78 631.204 480.964 632.744 481.778 634.715C482.592 636.686 482.999 638.961 482.999 641.542C482.999 642.23 482.983 642.783 482.952 643.2C482.92 643.616 482.861 644.056 482.775 644.519L458.301 644.519ZM468.592 667.636C471.016 667.636 473.227 667.134 475.222 666.132C477.217 665.129 478.928 663.704 480.353 661.859C481.778 660.013 482.828 657.85 483.504 655.37L480.893 655.37C479.946 658.37 478.416 660.708 476.304 662.382C474.192 664.057 471.659 664.894 468.705 664.894C466.45 664.894 464.494 664.317 462.838 663.163C461.183 662.008 459.906 660.367 459.007 658.239C458.108 656.111 457.659 653.581 457.659 650.651C457.659 650.21 457.682 649.695 457.73 649.104C457.778 648.514 457.844 647.848 457.93 647.108L485.081 647.108C485.239 646.354 485.36 645.49 485.444 644.518C485.528 643.545 485.57 642.614 485.57 641.725C485.57 638.428 485.047 635.583 484.001 633.191C482.954 630.798 481.465 628.953 479.533 627.654C477.601 626.354 475.312 625.705 472.664 625.705C470.138 625.705 467.8 626.339 465.651 627.608C463.501 628.876 461.637 630.651 460.058 632.934C458.479 635.216 457.252 637.883 456.377 640.934C455.501 643.984 455.063 647.298 455.063 650.874C455.063 654.217 455.601 657.147 456.677 659.663C457.752 662.18 459.304 664.138 461.333 665.537C463.362 666.936 465.781 667.636 468.592 667.636Z" fill="#626466" fill-rule="nonzero" opacity="1" stroke="none"/>
<path d="M520.922 666.967C524.621 666.967 527.869 666.265 530.663 664.86C533.458 663.455 535.639 661.485 537.207 658.949C538.774 656.414 539.558 653.443 539.558 650.037C539.558 646.614 538.689 643.864 536.951 641.789C535.212 639.714 532.982 638.467 530.259 638.048L530.292 637.891C532.47 637.465 534.437 636.542 536.195 635.121C537.953 633.7 539.347 631.936 540.376 629.83C541.405 627.723 541.92 625.429 541.92 622.948C541.92 620.535 541.438 618.404 540.474 616.555C539.51 614.707 538.12 613.254 536.303 612.198C534.486 611.141 532.306 610.613 529.761 610.613L513.985 610.613L503.82 666.967L520.922 666.967ZM516.139 613.421L529.026 613.421C532.372 613.421 534.909 614.324 536.638 616.13C538.368 617.936 539.232 620.381 539.232 623.465C539.232 625.953 538.622 628.189 537.402 630.173C536.182 632.156 534.551 633.722 532.509 634.87C530.467 636.018 528.208 636.592 525.732 636.592L511.964 636.592L516.139 613.421ZM506.986 664.16L511.468 639.355L525.34 639.355C527.567 639.355 529.544 639.756 531.271 640.556C532.998 641.357 534.357 642.566 535.348 644.183C536.338 645.8 536.834 647.825 536.834 650.257C536.834 652.947 536.171 655.341 534.846 657.438C533.521 659.536 531.668 661.18 529.289 662.372C526.91 663.564 524.15 664.16 521.009 664.16L506.986 664.16Z" fill="#626466" fill-rule="nonzero" opacity="1" stroke="none"/>
<path d="M559.102 664.872C555.649 664.872 552.886 663.538 550.813 660.869C548.74 658.201 547.704 654.678 547.704 650.302C547.704 646.161 548.366 642.439 549.692 639.137C551.017 635.835 552.82 633.228 555.101 631.315C557.382 629.403 559.945 628.447 562.791 628.447C566.244 628.447 569.007 629.781 571.08 632.45C573.153 635.118 574.189 638.641 574.189 643.017C574.189 647.158 573.526 650.88 572.201 654.182C570.876 657.484 569.078 660.091 566.809 662.003C564.539 663.916 561.97 664.872 559.102 664.872ZM562.791 625.705C560.274 625.705 557.942 626.323 555.792 627.56C553.643 628.797 551.77 630.529 550.173 632.757C548.575 634.985 547.334 637.601 546.448 640.605C545.562 643.609 545.119 646.869 545.119 650.385C545.119 653.828 545.693 656.842 546.842 659.426C547.992 662.01 549.616 664.021 551.716 665.458C553.815 666.895 556.278 667.614 559.102 667.614C561.619 667.614 563.951 666.996 566.1 665.759C568.25 664.522 570.123 662.79 571.72 660.562C573.318 658.334 574.56 655.718 575.446 652.714C576.331 649.71 576.774 646.45 576.774 642.934C576.774 639.472 576.2 636.452 575.051 633.873C573.902 631.295 572.281 629.289 570.189 627.855C568.097 626.422 565.631 625.705 562.791 625.705Z" fill="#626466" fill-rule="nonzero" opacity="1" stroke="none"/>
<path d="M579.225 666.967L581.792 666.967L586.211 642.49C586.733 639.675 587.52 637.23 588.573 635.155C589.627 633.08 590.892 631.474 592.371 630.338C593.849 629.201 595.472 628.633 597.24 628.633C598.146 628.633 599.004 628.743 599.815 628.962C600.625 629.182 601.233 629.467 601.64 629.818L602.222 626.833C601.783 626.549 601.149 626.301 600.32 626.087C599.492 625.873 598.642 625.766 597.771 625.766C595.72 625.766 593.866 626.398 592.209 627.662C590.553 628.927 589.113 630.82 587.888 633.343L587.756 633.343L589.026 626.352L586.542 626.352L579.225 666.967Z" fill="#626466" fill-rule="nonzero" opacity="1" stroke="none"/>
<path d="M600.301 666.967L602.884 666.967L610.202 626.352L607.619 626.352L600.301 666.967ZM611.129 616.354C611.681 616.354 612.161 616.126 612.569 615.671C612.978 615.215 613.182 614.649 613.182 613.972C613.182 613.295 612.978 612.729 612.569 612.273C612.161 611.817 611.681 611.59 611.129 611.59C610.577 611.59 610.102 611.817 609.705 612.273C609.308 612.729 609.109 613.295 609.109 613.972C609.109 614.649 609.308 615.215 609.705 615.671C610.102 616.126 610.577 616.354 611.129 616.354Z" fill="#626466" fill-rule="nonzero" opacity="1" stroke="none"/>
<path d="M610.893 666.967L613.47 666.967L618.016 641.951C618.467 639.45 619.313 637.177 620.553 635.134C621.792 633.091 623.321 631.467 625.139 630.263C626.957 629.06 628.956 628.458 631.136 628.458C634.027 628.458 636.323 629.379 638.024 631.222C639.725 633.065 640.576 635.491 640.576 638.5C640.576 639.115 640.535 639.773 640.453 640.473C640.37 641.174 640.26 641.913 640.121 642.69L635.75 666.967L638.326 666.967L642.825 642.109C642.963 641.344 643.063 640.6 643.125 639.877C643.186 639.155 643.217 638.461 643.217 637.796C643.217 635.46 642.741 633.384 641.788 631.569C640.836 629.754 639.516 628.323 637.829 627.276C636.142 626.228 634.184 625.705 631.956 625.705C629.144 625.705 626.671 626.514 624.537 628.133C622.404 629.752 620.683 631.867 619.376 634.478L619.244 634.478L620.703 626.352L618.211 626.352L610.893 666.967Z" fill="#626466" fill-rule="nonzero" opacity="1" stroke="none"/>
<path d="M658.941 681.629C662.96 681.629 666.361 680.361 669.145 677.823C671.929 675.286 673.744 671.695 674.591 667.051L681.979 626.352L679.416 626.352L677.291 637.946L677.15 637.946C676.84 634.315 675.607 631.376 673.45 629.128C671.293 626.879 668.592 625.748 665.346 625.733C662.813 625.718 660.472 626.369 658.323 627.686C656.173 629.002 654.303 630.812 652.711 633.116C651.119 635.421 649.88 638.063 648.994 641.043C648.109 644.023 647.666 647.16 647.666 650.454C647.666 653.8 648.191 656.712 649.241 659.19C650.29 661.668 651.775 663.589 653.694 664.951C655.612 666.314 657.855 666.995 660.422 666.995C663.211 666.995 665.794 666.125 668.17 664.385C670.546 662.645 672.383 660.289 673.681 657.318L673.814 657.318L672.015 666.943C671.3 670.703 669.802 673.648 667.522 675.777C665.243 677.906 662.43 678.971 659.084 678.971C655.917 678.971 653.376 678.142 651.461 676.485C649.547 674.827 648.5 672.83 648.32 670.494L645.683 670.494C645.715 672.512 646.292 674.362 647.413 676.046C648.535 677.73 650.092 679.082 652.084 680.101C654.076 681.12 656.362 681.629 658.941 681.629ZM660.903 664.254C657.565 664.254 654.952 662.999 653.064 660.489C651.177 657.979 650.233 654.591 650.233 650.326C650.233 647.339 650.622 644.529 651.402 641.896C652.181 639.262 653.261 636.937 654.642 634.92C656.023 632.903 657.628 631.321 659.457 630.176C661.286 629.03 663.243 628.458 665.326 628.458C668.52 628.458 671.086 629.722 673.024 632.25C674.962 634.779 675.931 638.15 675.931 642.364C675.931 645.404 675.558 648.246 674.81 650.891C674.063 653.535 673.013 655.859 671.661 657.863C670.308 659.867 668.718 661.433 666.889 662.561C665.06 663.689 663.065 664.254 660.903 664.254Z" fill="#626466" fill-rule="nonzero" opacity="1" stroke="none"/>
</g>
</g>
<path d="M1 400C1 179.638 179.638 1 400 1C620.362 1 799 179.638 799 400C799 620.362 620.362 799 400 799C179.638 799 1 620.362 1 400Z" fill="none" opacity="1" stroke="#626466" stroke-linecap="butt" stroke-linejoin="round" stroke-width="2" vectornator:layerName="Oval"/>
</g>
</g>
</svg>
